HIERARCHY
ROOT hip
{
	OFFSET 0.000000 0.000000 0.000000 
	CHANNELS 6 Xposition Yposition Zposition Xrotation Zrotation Yrotation
	JOINT abdomen
	{
		OFFSET 0.000000 3.402643 0.000000 
		CHANNELS 3 Xrotation Zrotation Yrotation
		JOINT chest
		{
			OFFSET 0.000000 8.438565 -0.680529 
			CHANNELS 3 Xrotation Zrotation Yrotation
			JOINT neck
			{
				OFFSET 0.000000 10.207942 -0.272212 
				CHANNELS 3 Xrotation Zrotation Yrotation
				JOINT head
				{
					OFFSET 0.000000 3.130431 0.000000 
					CHANNELS 3 Xrotation Zrotation Yrotation
					End Site
					{
						OFFSET 0.000000 3.130435 0.000000 
					}
				}
			}
			JOINT lCollar
			{
				OFFSET 3.470700 6.669187 -0.816635 
				CHANNELS 3 Yrotation Zrotation Xrotation
				JOINT lShldr
				{
					OFFSET 3.198488 0.000000 0.000000 
					CHANNELS 3 Zrotation Yrotation Xrotation
					JOINT lForeArm
					{
						OFFSET 10.139888 0.000000 0.000000 
						CHANNELS 3 Yrotation Zrotation Xrotation
						JOINT lHand
						{
							OFFSET 8.370511 0.000000 0.000000 
							CHANNELS 3 Zrotation Yrotation Xrotation
							End Site
							{
								OFFSET 4.083176 0.000000 0.000000 
							}
						}
					}
				}
			}
			JOINT rCollar
			{
				OFFSET -3.470700 6.669187 -0.816635 
				CHANNELS 3 Yrotation Zrotation Xrotation
				JOINT rShldr
				{
					OFFSET -3.198488 0.000000 0.000000 
					CHANNELS 3 Zrotation Yrotation Xrotation
					JOINT rForeArm
					{
						OFFSET -10.139888 0.000000 0.000000 
						CHANNELS 3 Yrotation Zrotation Xrotation
						JOINT rHand
						{
							OFFSET -8.370511 0.000000 0.000000 
							CHANNELS 3 Zrotation Yrotation Xrotation
							End Site
							{
								OFFSET -4.083176 0.000000 0.000000 
							}
						}
					}
				}
			}
		}
	}
	JOINT lThigh
	{
		OFFSET 5.308129 -1.633274 1.361059 
		CHANNELS 3 Xrotation Zrotation Yrotation
		JOINT lShin
		{
			OFFSET -2.041588 -20.007561 0.000000 
			CHANNELS 3 Xrotation Zrotation Yrotation
			JOINT lFoot
			{
				OFFSET 0.000000 -19.190928 -1.224953 
				CHANNELS 3 Xrotation Yrotation Zrotation
				End Site
				{
					OFFSET 0.000000 -2.449906 4.627600 
				}
			}
		}
	}
	JOINT rThigh
	{
		OFFSET -5.308129 -1.633274 1.361059 
		CHANNELS 3 Xrotation Zrotation Yrotation
		JOINT rShin
		{
			OFFSET 2.041588 -20.007561 0.000000 
			CHANNELS 3 Xrotation Zrotation Yrotation
			JOINT rFoot
			{
				OFFSET 0.000000 -19.190928 -1.224953 
				CHANNELS 3 Xrotation Yrotation Zrotation
				End Site
				{
					OFFSET 0.000000 -2.449906 4.627600 
				}
			}
		}
	}
}
MOTION
Frames: 19
Frame Time: 0.033333
21.938713 203.330719 28.462851 6.181641 9.892579 121.210938 28.936459 -11.040349 -7.049950 -18.867189 11.699219 -0.585937 -5.878612 -1.376345 -1.263648 41.337894 -0.722656 -0.195436 2.000000 -2.000000 0.000000 35.576187 -112.832031 -94.208221 -88.341827 0.117845 27.469427 -35.211048 1.598889 -1.197645 -2.000000 2.000000 0.000000 80.751953 10.673829 0.392435 46.174011 -2.532045 69.319160 7.303227 14.890052 2.273352 -82.488144 24.881578 11.712602 116.192047 2.153692 -3.631046 72.577293 -42.272976 54.801533 -66.822975 -21.131260 -13.195436 125.446480 -2.802655 3.230017 19.236807 6.156808 8.133404 
20.116312 202.809448 28.528162 7.011719 10.048828 119.443359 28.534008 -11.766582 -6.646545 -17.978516 11.572266 0.273437 -5.395314 -0.565973 -1.978692 41.484375 -0.966797 -0.771649 2.000000 -2.000000 0.000000 35.097664 -112.158203 -95.057869 -85.598557 -0.340873 20.639109 -37.628277 3.708784 -3.020015 -2.000000 2.000000 0.000000 81.943359 10.205079 -3.369141 45.584797 -2.767104 74.680786 6.513422 17.591734 2.435742 -83.277939 23.582644 6.600348 113.957443 2.008341 -3.695292 71.901924 -40.118801 52.917484 -64.851791 -21.248936 -13.791038 121.774788 -2.605900 3.350281 22.548780 7.166549 7.299286 
18.338947 202.340469 28.600441 7.714844 10.283203 117.794716 28.039911 -12.333402 -6.309002 -17.080080 11.455078 0.986328 -4.835207 0.159562 -2.601911 41.591797 -1.142578 -1.250195 2.000000 -2.000000 0.000000 34.863281 -111.445313 -95.986328 -83.263916 -0.765310 14.315158 -39.707584 6.787879 -5.926080 -2.000000 2.000000 0.000000 83.076172 9.902344 -6.914062 45.213024 -2.975351 79.721947 5.807371 20.077341 2.525899 -83.190407 22.284222 1.925359 111.420616 1.832264 -3.773405 70.753273 -37.912971 50.178280 -62.684082 -21.229666 -14.549145 117.907928 -2.363367 3.515602 25.434433 8.104640 6.460714 
16.627640 201.951065 28.682920 8.251954 10.556643 116.281090 27.455921 -12.666890 -6.117620 -16.162109 11.357422 1.466767 -4.130177 0.705704 -3.039868 41.621098 -1.230469 -1.562710 2.000000 -2.000000 0.000000 35.097664 -110.634766 -97.264992 -81.153961 -1.074791 9.568787 -41.102741 9.960552 -9.069897 -2.000000 2.000000 0.000000 84.111328 9.853516 -10.009766 45.068604 -3.147582 84.364510 5.325472 22.287586 2.619717 -82.369598 21.249344 -1.926409 108.561623 1.637881 -3.860808 68.579796 -35.731155 45.863682 -60.320850 -20.966026 -15.485429 113.759727 -2.099778 3.652504 27.496403 8.825974 5.746430 
14.983885 201.642532 28.772743 8.613282 10.820313 114.923714 26.778576 -12.735197 -6.103770 -15.224609 11.230471 1.640625 -3.299649 0.984618 -3.220232 41.533211 -1.240234 -1.621305 2.000000 -2.000000 0.000000 35.976574 -109.589844 -99.169357 -79.111786 -1.255456 6.663644 -42.097404 12.551739 -11.724034 -2.000000 2.000000 0.000000 84.980469 10.039063 -12.429936 45.213844 -3.287613 88.587173 5.210127 24.261011 2.792589 -81.045189 20.508204 -4.920318 105.468987 1.429280 -3.935983 65.454964 -33.749039 40.284981 -57.846916 -20.475424 -16.516411 109.301125 -1.796771 3.770946 28.735863 9.319614 5.220980 
13.402953 201.408661 28.863308 8.867188 11.044922 113.779297 26.036575 -12.532631 -6.252638 -14.316407 11.054688 1.503906 -2.391923 0.928695 -3.132783 41.318363 -1.132813 -1.455276 2.000000 -2.000000 0.000000 37.646500 -108.232422 -101.864746 -77.115074 -1.346802 5.338421 -42.990185 14.465205 -13.820783 -2.000000 2.000000 0.000000 85.703125 10.400392 -13.994140 45.695126 -3.387255 92.254570 5.553938 25.967855 3.121112 -79.441925 20.019501 -6.944849 102.182388 1.198992 -3.990076 61.430004 -31.967754 33.920479 -55.408390 -19.842489 -17.568310 104.637596 -1.494270 3.876771 29.135128 9.501696 5.050642 
11.877012 201.236969 28.948153 8.994141 11.210938 112.853462 25.262409 -12.093357 -6.556546 -13.476563 10.800782 1.093750 -1.553258 0.607897 -2.837560 40.996098 -0.947266 -1.123209 2.000000 -2.000000 0.000000 40.332050 -106.601563 -105.497643 -75.296364 -1.370094 4.958118 -43.770103 16.012966 -15.611214 -2.000000 2.000000 0.000000 86.250000 10.888672 -14.597764 46.499489 -3.456119 95.051491 6.448667 27.289803 3.692317 -77.729141 19.705870 -8.051943 98.680923 0.984827 -4.013764 56.948681 -30.377003 27.531248 -53.113525 -19.158985 -18.572433 99.829330 -1.152288 3.966355 28.818474 9.396405 5.154271 
10.398963 201.110092 29.021551 9.003905 11.260138 112.147789 24.511488 -11.478789 -6.938997 -12.763672 10.478517 0.490057 -0.871369 0.124978 -2.438663 40.585938 -0.751953 -0.732422 2.000000 -2.000000 0.000000 44.042973 -104.843750 -110.009445 -73.765282 -1.386402 4.851515 -44.349567 17.660244 -17.414909 -2.000000 2.000000 0.000000 86.630859 11.416016 -14.265642 47.561760 -3.495144 96.606766 7.983923 28.039038 4.535429 -76.052841 19.452845 -8.374627 95.042397 0.731171 -4.075266 52.276287 -28.867577 21.646317 -51.032314 -18.445267 -19.504887 94.943771 -0.810384 4.014280 27.946835 9.057512 5.503847 
8.963335 201.010574 29.079895 8.945313 11.250001 111.691360 23.821867 -10.774249 -7.340466 -12.207032 10.146485 -0.185547 -0.365315 -0.336256 -2.092419 40.107426 -0.605469 -0.429792 2.000000 -2.000000 0.000000 48.935547 -103.115234 -115.449211 -72.588524 -1.401298 4.607642 -44.669319 19.638830 -19.359495 -2.000000 2.000000 0.000000 86.875000 11.875000 -13.134766 48.795235 -3.505786 96.655319 10.135195 28.037117 5.580348 -74.494354 19.187914 -8.040725 91.327766 0.468576 -4.075078 47.794884 -27.536774 16.699581 -49.226620 -17.791565 -20.397072 90.116638 -0.478682 4.033006 26.808744 8.646787 5.958837 
7.566398 200.920990 29.122566 8.789063 11.162108 111.417908 23.243275 -10.084362 -7.675255 -11.826172 9.833984 -0.839844 -0.034340 -0.626264 -1.920199 39.589848 -0.556641 -0.312595 2.000000 -2.000000 0.000000 -125.283211 -78.447266 58.447266 -71.731583 -1.437554 4.012928 -44.721973 21.889572 -21.332987 -2.000000 2.000000 0.000000 86.972656 12.207032 -11.443246 50.039616 -3.464342 94.973335 12.782011 27.076620 6.660053 -73.039154 18.885185 -7.174765 87.514488 0.195536 -4.088820 43.768452 -26.435898 12.750149 -47.698021 -17.200977 -21.196733 85.425980 -0.117113 4.058742 25.784607 8.244781 6.305002 
6.205540 200.825195 29.149813 8.584202 11.054959 111.320663 22.798815 -9.440915 -7.913678 -11.621095 9.580078 -1.386719 0.151422 -0.652876 -1.965560 39.072269 -0.595703 -0.429790 2.000000 -2.000000 0.000000 -118.720711 -79.726563 51.835938 -71.116341 -1.493172 3.096357 -44.572540 24.258781 -23.172768 -2.000000 2.000000 0.000000 86.982422 12.363282 -9.353376 51.162872 -3.368104 91.423332 15.679249 24.952555 7.480415 -71.738632 18.562723 -5.921196 83.690811 -0.067211 -4.084795 40.337578 -25.634621 9.814564 -46.508759 -16.695131 -21.915962 80.950050 0.185552 4.000999 25.010330 8.118141 6.528812 
4.877522 200.707016 29.162752 8.330078 10.908203 111.369659 22.483667 -8.903109 -8.039278 -11.611328 9.404297 -1.787109 0.231283 -0.409353 -2.249272 38.544922 -0.693359 -0.752071 2.000000 -2.000000 0.000000 -111.738281 -80.703125 45.029297 -70.712646 -1.563121 1.936132 -44.238350 26.600592 -24.761162 -2.000000 2.000000 0.000000 86.904297 12.304688 -7.031250 52.057064 -3.216374 86.015800 18.443136 21.513842 7.621677 -70.542908 18.163437 -4.394788 79.837769 -0.330436 -4.053844 37.688244 -25.200678 7.866421 -45.642895 -16.258337 -22.539005 76.784790 0.488315 3.962750 24.715662 8.317534 6.441513 
3.580233 200.556488 29.161880 8.027345 10.761719 111.495956 22.316061 -8.464154 -8.068369 -11.728516 9.296876 -2.070313 0.253650 0.090851 -2.729795 37.998047 -0.810547 -1.259769 2.000000 -2.000000 0.000000 -104.843750 -81.425781 38.544922 -70.537804 -1.649246 0.658971 -43.703217 28.875305 -26.020634 -2.000000 2.000000 0.000000 86.806641 12.011719 -4.675702 52.714161 -2.982806 79.379150 20.421116 17.107588 6.791930 -69.440384 17.763094 -2.723524 76.043617 -0.603076 -3.989976 35.850624 -25.255039 6.805803 -45.072727 -15.913110 -23.043652 72.950615 0.771479 3.904028 24.823509 8.855490 6.193301 
2.313300 200.363663 29.149689 7.714844 10.634766 111.710793 22.294565 -8.117289 -8.017641 -11.972656 9.267579 -2.236328 0.198660 0.760869 -3.393858 37.451172 -0.888672 -1.904449 2.000000 -2.000000 0.000000 -98.457031 -81.933594 32.724613 -70.560738 -1.726656 -0.647782 -43.010246 31.016476 -26.944950 -2.000000 2.000000 0.000000 86.699219 11.533203 -2.587891 53.078220 -2.709796 72.785164 21.060320 12.649335 5.223601 -68.386658 17.313982 -0.993884 72.305687 -0.856715 -3.939798 34.802475 -25.732870 6.479714 -44.762974 -15.651869 -23.476568 69.504356 1.006476 3.861940 25.318634 9.746023 5.668332 
1.077964 200.119827 29.129038 7.392578 10.517579 111.953125 22.398668 -7.859154 -7.898870 -12.294923 9.316407 -2.294922 0.124338 1.514398 -4.159387 36.884762 -0.908203 -2.626954 2.000000 -2.000000 0.000000 -92.939453 -82.285156 27.900391 -70.741432 -1.792981 -1.945394 -42.192741 32.967030 -27.563242 -2.000000 2.000000 0.000000 86.611328 10.888671 -0.976562 53.075333 -2.462306 67.550957 20.341322 9.158168 3.658659 -67.416740 16.854324 0.660704 68.674995 -1.118893 -3.860491 34.378429 -26.676529 6.740731 -44.664013 -15.435975 -23.842770 66.380737 1.210919 3.773027 26.042463 10.900383 4.987073 
-0.123906 199.821259 29.101791 7.060547 10.419922 112.199036 22.585060 -7.656873 -7.769790 -12.675781 9.433594 -2.303087 0.059956 2.270408 -4.974213 36.308598 -0.849609 -3.388817 2.000000 -2.000000 0.000000 -88.056641 -82.480469 23.789064 -70.944160 -1.879700 -3.271453 -41.340355 34.681961 -27.917860 -2.000000 2.000000 0.000000 86.552734 10.107423 0.099372 52.567066 -2.306036 64.427170 18.638184 7.161422 2.623156 -66.518387 16.404963 2.214459 65.187965 -1.333033 -3.796523 34.318283 -27.923487 7.385786 -44.744308 -15.291726 -24.141783 63.607769 1.386635 3.682646 26.826778 12.230675 4.165927 
-1.290820 199.469162 29.069321 6.699219 10.332031 112.452927 22.803747 -7.492191 -7.624840 -13.085938 9.609376 -2.304688 0.034857 2.968616 -5.780500 35.742184 -0.732422 -4.111329 2.000000 -2.000000 0.000000 -83.916016 -82.568359 20.488281 -71.110229 -1.947161 -4.618184 -40.551651 36.116432 -28.098711 -2.000000 2.000000 0.000000 86.542969 9.257812 0.685165 51.519222 -2.238282 63.432526 16.281759 6.638680 2.109349 -65.706871 15.984666 3.551472 61.935562 -1.556836 -3.696921 34.424698 -29.359411 8.237944 -44.947361 -15.162908 -24.413113 61.166229 1.580712 3.599806 27.498116 13.534533 3.345061 
-2.419292 199.062378 29.031626 6.328125 10.234376 112.648216 23.011881 -7.337923 -7.534596 -13.476563 9.804688 -2.314453 0.058568 3.587328 -6.525346 35.214848 -0.566406 -4.765731 2.000000 -2.000000 0.000000 -80.361328 -82.519531 17.792969 -71.120926 -2.021785 -5.935166 -39.907646 37.195358 -28.158501 -2.000000 2.000000 0.000000 86.621094 8.388672 0.851034 49.919571 -2.284054 64.173866 13.443967 7.231087 1.918320 -65.000046 15.605526 4.657024 58.936649 -1.773397 -3.572353 34.551800 -30.767803 9.100396 -45.261341 -15.056497 -24.773947 59.025211 1.669728 3.551387 27.963285 14.692087 2.586956 
-3.505715 198.605804 28.985973 5.937500 10.146484 112.794685 23.180199 -7.182589 -7.475232 -13.779297 10.000001 -2.363281 0.110886 4.124119 -7.158333 34.765625 -0.380859 -5.312565 2.000000 -2.000000 0.000000 -77.500000 -82.333984 15.742274 -71.002266 -2.098168 -7.124963 -39.487160 37.872787 -28.183390 -2.000000 2.000000 0.000000 86.787109 7.568360 0.722656 47.898781 -2.370931 65.999443 10.246817 8.483703 1.744951 -64.355202 15.273440 5.537545 56.208469 -1.923744 -3.491580 34.600952 -31.911608 9.725849 -45.619694 -14.956257 -25.069508 57.197437 1.786960 3.489236 28.107964 15.576900 2.091946 
